<svg width="200" height="201" viewBox="0 0 200 201" fill="none" xmlns="http://www.w3.org/2000/svg">
<circle cx="100" cy="100.5" r="100" fill="#FBBF24"/>
<path d="M147.119 39.7V158H120.079V126.566H95.0672L74.1112 158H45.2122L69.8862 122.341C61.8869 119.074 55.7465 114.173 51.4652 107.638C47.1839 100.991 45.0432 93.0476 45.0432 83.809C45.0432 74.683 47.1275 66.8526 51.2962 60.318C55.4649 53.6706 61.3799 48.6006 69.0412 45.108C76.7025 41.5026 85.7159 39.7 96.0812 39.7H147.119ZM96.7572 62.008C88.9832 62.008 83.0119 63.8106 78.8432 67.416C74.7872 71.0213 72.7592 76.373 72.7592 83.471C72.7592 90.3436 74.7309 95.639 78.6742 99.357C82.6175 103.075 88.4199 104.934 96.0812 104.934H120.079V62.008H96.7572Z" fill="black"/>
</svg>
